<svg width="13" height="13" viewBox="0 0 13 13" fill="none" xmlns="http://www.w3.org/2000/svg">
<path d="M5.83682 0.969396C6.04743 0.476936 6.74554 0.476937 6.95615 0.969397L8.13799 3.73284C8.22603 3.93869 8.41997 4.0796 8.64296 4.09972L11.6364 4.36977C12.1698 4.41789 12.3855 5.08183 11.9822 5.43431L9.71927 7.41225C9.55069 7.5596 9.47661 7.78759 9.52638 8.00588L10.1946 10.9362C10.3136 11.4584 9.74886 11.8688 9.28901 11.5941L6.70857 10.0531C6.51635 9.93835 6.27662 9.93835 6.0844 10.0531L3.50396 11.5941C3.04411 11.8688 2.47933 11.4584 2.5984 10.9362L3.26658 8.00588C3.31636 7.78759 3.24228 7.5596 3.0737 7.41225L0.810724 5.43431C0.407449 5.08182 0.623176 4.41789 1.15661 4.36977L4.15001 4.09972C4.373 4.0796 4.56694 3.93869 4.65498 3.73284L5.83682 0.969396Z" stroke="#E0E0E0" stroke-width="1.2"/>
</svg>
